<svg width="20" height="20" viewBox="0 0 20 20" fill="none" xmlns="http://www.w3.org/2000/svg">
<path d="M10 0C11.3833 0 12.6792 0.2625 13.8875 0.7875C15.0958 1.3125 16.1542 2.02917 17.0625 2.9375C17.9708 3.84583 18.6875 4.90417 19.2125 6.1125C19.7375 7.32083 20 8.61667 20 10C20 11.3667 19.7375 12.6583 19.2125 13.875C18.6875 15.0917 17.9708 16.1542 17.0625 17.0625C16.1542 17.9708 15.0958 18.6875 13.8875 19.2125C12.6792 19.7375 11.3833 20 10 20C8.63333 20 7.34167 19.7375 6.125 19.2125C4.90833 18.6875 3.84583 17.9708 2.9375 17.0625C2.02917 16.1542 1.3125 15.0917 0.7875 13.875C0.2625 12.6583 0 11.3667 0 10C0 8.61667 0.2625 7.32083 0.7875 6.1125C1.3125 4.90417 2.02917 3.84583 2.9375 2.9375C3.84583 2.02917 4.90833 1.3125 6.125 0.7875C7.34167 0.2625 8.63333 0 10 0ZM10 18C12.2167 18 14.1042 17.2208 15.6625 15.6625C17.2208 14.1042 18 12.2167 18 10C18 7.78333 17.2208 5.89583 15.6625 4.3375C14.1042 2.77917 12.2167 2 10 2C7.78333 2 5.89583 2.77917 4.3375 4.3375C2.77917 5.89583 2 7.78333 2 10C2 12.2167 2.77917 14.1042 4.3375 15.6625C5.89583 17.2208 7.78333 18 10 18ZM8 5C8 5.55 8.19583 6.02083 8.5875 6.4125C8.97917 6.80417 9.45 7 10 7C10.55 7 11.0208 6.80417 11.4125 6.4125C11.8042 6.02083 12 5.55 12 5C12 4.45 11.8042 3.97917 11.4125 3.5875C11.0208 3.19583 10.55 3 10 3C9.45 3 8.97917 3.19583 8.5875 3.5875C8.19583 3.97917 8 4.45 8 5ZM10 8C9.11667 8 8.14583 8.21667 7.0875 8.65C6.02917 9.08333 5.5 9.7 5.5 10.5V14.5C5.5 15.2333 6.025 15.85 7.075 16.35C8.125 16.85 9.26667 17.05 10.5 16.95V14.95C9.91667 14.9833 9.36667 14.9417 8.85 14.825C8.33333 14.7083 7.88333 14.5333 7.5 14.3C7.58333 13.9167 7.875 13.6042 8.375 13.3625C8.875 13.1208 9.41667 13 10 13C10.5833 13 11.1458 13.1333 11.6875 13.4C12.2292 13.6667 12.5 14.0167 12.5 14.45V16.5C13.2333 16.2333 13.75 15.9125 14.05 15.5375C14.35 15.1625 14.5 14.8167 14.5 14.5V10.5C14.5 9.7 13.9708 9.08333 12.9125 8.65C11.8542 8.21667 10.8833 8 10 8ZM10 12.5C9.65 12.5 9.35417 12.3792 9.1125 12.1375C8.87083 11.8958 8.75 11.6 8.75 11.25C8.75 10.9 8.87083 10.6042 9.1125 10.3625C9.35417 10.1208 9.65 10 10 10C10.35 10 10.6458 10.1208 10.8875 10.3625C11.1292 10.6042 11.25 10.9 11.25 11.25C11.25 11.6 11.1292 11.8958 10.8875 12.1375C10.6458 12.3792 10.35 12.5 10 12.5Z" fill="#C4C7CB"/>
</svg>
